<svg fill="none" height="24" viewBox="0 0 24 24" width="24" xmlns="http://www.w3.org/2000/svg"><g stroke="#323232" stroke-width="2"><path d="m6 3c1.65685 0 3 1.34315 3 3s-1.34315 3-3 3-3-1.34315-3-3 1.34315-3 3-3z"/><path d="m18 3c1.6569 0 3 1.34315 3 3s-1.3431 3-3 3-3-1.34315-3-3 1.3431-3 3-3z"/><path d="m12 15c1.6569 0 3 1.3431 3 3s-1.3431 3-3 3-3-1.3431-3-3 1.3431-3 3-3z"/><g stroke-linecap="round"><path d="m6.01221 9c.10078 2.4506.8634 3 3.63981 3h4.69598c2.7764 0 3.539-.5494 3.6398-3"/><path d="m12 15v-3" stroke-linejoin="round"/></g></g></svg>